{"title":"Ghost Adventures S04E22 XviD tNe avi","uid":6203604,"size":366520320,"categoryP":"video","categoryS":"tv_shows","magnet":"?xt=urn:btih:be46ccf94ab1b67df4ce6e418d138d9028349e86&amp;dn=Ghost+Adventures+S04E22+XviD+tNe+avi&amp;tr=udp%3A%2F%2Ftracker.openbittorrent.com%3A80&amp;tr=udp%3A%2F%2Fopen.demonii.com%3A1337&amp;tr=udp%3A%2F%2Ftracker.coppersurfer.tk%3A6969&amp;tr=udp%3A%2F%2Fexodus.desync.com%3A6969","seeders":0,"leechers":1,"uploader":"trialNerror","files":1,"time":1298712472,"description":"Labeled episode 22 due to the fact there is already an episode 20 posted.\nThis is the 22nd episode of the season if including the 3 Specials.\n(Best Evidence, Scariest Moments, and Valentine's Day)\nThis is an SDTV Rip, but I'm sure an HDTV version will be available very soon.\n\n\nFormat                           : AVI\nFormat/Info                      : Audio Video Interleave\nFile size                        : 350 MiB\nDuration                         : 42mn 9s\nOverall bit rate                 : 1 159 Kbps\nWriting application              : VirtualDubMod 1.5.10.2 (build 2542/release)\nWriting library                  : VirtualDubMod build 2542/release\n\nVideo\nID                               : 0\nFormat                           : MPEG-4 Visual\nFormat profile                   : Advanced Simple@L5\nFormat settings, BVOP            : Yes\nFormat settings, QPel            : No\nFormat settings, GMC             : No warppoints\nFormat settings, Matrix          : Default (H.263)\nMuxing mode                      : Packed bitstream\nCodec ID                         : XVID\nCodec ID/Hint                    : XviD\nDuration                         : 42mn 9s\nBit rate                         : 1 020 Kbps\nWidth                            : 624 pixels\nHeight                           : 352 pixels\nDisplay aspect ratio             : 16:9\nFrame rate                       : 29.970 fps\nColor space                      : YUV\nChroma subsampling               : 4:2:0\nBit depth                        : 8 bits\nScan type                        : Progressive\nBits/(Pixel*Frame)               : 0.155\nStream size                      : 307 MiB (88%)\nWriting library                  : XviD 58\n\nAudio\nID                               : 1\nFormat                           : MPEG Audio\nFormat version                   : Version 1\nFormat profile                   : Layer 3\nMode                             : Joint stereo\nMode extension                   : MS Stereo\nCodec ID                         : 55\nCodec ID/Hint                    : MP3\nDuration                         : 42mn 8s\nBit rate mode                    : Constant\nBit rate                         : 128 Kbps\nChannel(s)                       : 2 channels\nSampling rate                    : 48.0 KHz\nStream size                      : 38.6 MiB (11%)\nAlignment                        : Aligned on interleaves\nInterleave, duration             : 33 ms (1.00 video frame)\nInterleave, preload duration     : 504 ms\nWriting library                  : LAME3.99 (alpha)\n\n","torrent":{"xt":"urn:btih:be46ccf94ab1b67df4ce6e418d138d9028349e86","amp;dn":"Ghost+Adventures+S04E22+XviD+tNe+avi","amp;tr":["udp%3A%2F%2Ftracker.openbittorrent.com%3A80","udp%3A%2F%2Fopen.demonii.com%3A1337","udp%3A%2F%2Ftracker.coppersurfer.tk%3A6969","udp%3A%2F%2Fexodus.desync.com%3A6969"],"infoHash":"be46ccf94ab1b67df4ce6e418d138d9028349e86","infoHashBuffer":{"type":"Buffer","data":[190,70,204,249,74,177,182,125,244,206,110,65,141,19,141,144,40,52,158,134]},"announce":[],"urlList":[]}}